<svg width="202" height="22" viewBox="0 0 202 22" fill="none" xmlns="http://www.w3.org/2000/svg">
<path d="M16.42 2.748V21H11.974V13.486H5.058V21H0.612V2.748H5.058V9.898H11.974V2.748H16.42ZM38.1416 6.336C39.9442 6.336 41.3742 6.882 42.4316 7.974C43.5062 9.066 44.0436 10.5827 44.0436 12.524V21H39.6236V13.122C39.6236 12.186 39.3722 11.4667 38.8696 10.964C38.3842 10.444 37.7082 10.184 36.8416 10.184C35.9749 10.184 35.2902 10.444 34.7876 10.964C34.3022 11.4667 34.0596 12.186 34.0596 13.122V21H29.6396V13.122C29.6396 12.186 29.3882 11.4667 28.8856 10.964C28.4002 10.444 27.7242 10.184 26.8576 10.184C25.9909 10.184 25.3062 10.444 24.8036 10.964C24.3182 11.4667 24.0756 12.186 24.0756 13.122V21H19.6296V6.492H24.0756V8.312C24.5262 7.70533 25.1156 7.22867 25.8436 6.882C26.5716 6.518 27.3949 6.336 28.3136 6.336C29.4056 6.336 30.3762 6.57 31.2256 7.038C32.0922 7.506 32.7682 8.17333 33.2536 9.04C33.7562 8.24267 34.4409 7.59267 35.3076 7.09C36.1742 6.58733 37.1189 6.336 38.1416 6.336ZM49.389 4.984C48.609 4.984 47.9677 4.75867 47.465 4.308C46.9797 3.84 46.737 3.268 46.737 2.592C46.737 1.89867 46.9797 1.32667 47.465 0.875999C47.9677 0.407999 48.609 0.173998 49.389 0.173998C50.1517 0.173998 50.7757 0.407999 51.261 0.875999C51.7637 1.32667 52.015 1.89867 52.015 2.592C52.015 3.268 51.7637 3.84 51.261 4.308C50.7757 4.75867 50.1517 4.984 49.389 4.984ZM51.599 6.492V21H47.153V6.492H51.599Z" fill="#17CFB0"/>
<path d="M65.403 21L59.267 12.94V21H54.821V2.748H59.267V10.756L65.351 2.748H70.577L63.505 11.692L70.837 21H65.403ZM79.5539 21.208C78.1326 21.208 76.8499 20.9047 75.7059 20.298C74.5792 19.6913 73.6866 18.8247 73.0279 17.698C72.3866 16.5713 72.0659 15.254 72.0659 13.746C72.0659 12.2553 72.3952 10.9467 73.0539 9.82C73.7126 8.676 74.6139 7.80067 75.7579 7.194C76.9019 6.58733 78.1846 6.284 79.6059 6.284C81.0272 6.284 82.3099 6.58733 83.4539 7.194C84.5979 7.80067 85.4992 8.676 86.1579 9.82C86.8166 10.9467 87.1459 12.2553 87.1459 13.746C87.1459 15.2367 86.8079 16.554 86.1319 17.698C85.4732 18.8247 84.5632 19.6913 83.4019 20.298C82.2579 20.9047 80.9752 21.208 79.5539 21.208ZM79.5539 17.36C80.4032 17.36 81.1226 17.048 81.7119 16.424C82.3186 15.8 82.6219 14.9073 82.6219 13.746C82.6219 12.5847 82.3272 11.692 81.7379 11.068C81.1659 10.444 80.4552 10.132 79.6059 10.132C78.7392 10.132 78.0199 10.444 77.4479 11.068C76.8759 11.6747 76.5899 12.5673 76.5899 13.746C76.5899 14.9073 76.8672 15.8 77.4219 16.424C77.9939 17.048 78.7046 17.36 79.5539 17.36ZM108.017 6.336C109.819 6.336 111.249 6.882 112.307 7.974C113.381 9.066 113.919 10.5827 113.919 12.524V21H109.499V13.122C109.499 12.186 109.247 11.4667 108.745 10.964C108.259 10.444 107.583 10.184 106.717 10.184C105.85 10.184 105.165 10.444 104.663 10.964C104.177 11.4667 103.935 12.186 103.935 13.122V21H99.5146V13.122C99.5146 12.186 99.2632 11.4667 98.7606 10.964C98.2752 10.444 97.5992 10.184 96.7326 10.184C95.8659 10.184 95.1812 10.444 94.6786 10.964C94.1932 11.4667 93.9506 12.186 93.9506 13.122V21H89.5046V6.492H93.9506V8.312C94.4012 7.70533 94.9906 7.22867 95.7186 6.882C96.4466 6.518 97.2699 6.336 98.1886 6.336C99.2806 6.336 100.251 6.57 101.101 7.038C101.967 7.506 102.643 8.17333 103.129 9.04C103.631 8.24267 104.316 7.59267 105.183 7.09C106.049 6.58733 106.994 6.336 108.017 6.336ZM124.308 10.184H121.916V21H117.47V10.184H115.858V6.492H117.47V6.076C117.47 4.29067 117.981 2.93867 119.004 2.02C120.027 1.084 121.526 0.615999 123.502 0.615999C123.831 0.615999 124.074 0.624666 124.23 0.641999V4.412C123.381 4.36 122.783 4.48133 122.436 4.776C122.089 5.07067 121.916 5.59933 121.916 6.362V6.492H124.308V10.184ZM125.513 13.72C125.513 12.2293 125.79 10.9207 126.345 9.794C126.917 8.66733 127.688 7.80067 128.659 7.194C129.63 6.58733 130.713 6.284 131.909 6.284C132.932 6.284 133.824 6.492 134.587 6.908C135.367 7.324 135.965 7.87 136.381 8.546V6.492H140.827V21H136.381V18.946C135.948 19.622 135.341 20.168 134.561 20.584C133.798 21 132.906 21.208 131.883 21.208C130.704 21.208 129.63 20.9047 128.659 20.298C127.688 19.674 126.917 18.7987 126.345 17.672C125.79 16.528 125.513 15.2107 125.513 13.72ZM136.381 13.746C136.381 12.6367 136.069 11.7613 135.445 11.12C134.838 10.4787 134.093 10.158 133.209 10.158C132.325 10.158 131.571 10.4787 130.947 11.12C130.34 11.744 130.037 12.6107 130.037 13.72C130.037 14.8293 130.34 15.7133 130.947 16.372C131.571 17.0133 132.325 17.334 133.209 17.334C134.093 17.334 134.838 17.0133 135.445 16.372C136.069 15.7307 136.381 14.8553 136.381 13.746ZM152.91 21L148.49 14.916V21H144.044V1.76H148.49V12.394L152.884 6.492H158.37L152.338 13.772L158.422 21H152.91ZM168.202 17.23V21H165.94C164.328 21 163.071 20.61 162.17 19.83C161.269 19.0327 160.818 17.7413 160.818 15.956V10.184H159.05V6.492H160.818V2.956H165.264V6.492H168.176V10.184H165.264V16.008C165.264 16.4413 165.368 16.7533 165.576 16.944C165.784 17.1347 166.131 17.23 166.616 17.23H168.202ZM184.354 13.512C184.354 13.928 184.328 14.3613 184.276 14.812H174.214C174.284 15.7133 174.57 16.4067 175.072 16.892C175.592 17.36 176.225 17.594 176.97 17.594C178.08 17.594 178.851 17.126 179.284 16.19H184.016C183.774 17.1433 183.332 18.0013 182.69 18.764C182.066 19.5267 181.278 20.1247 180.324 20.558C179.371 20.9913 178.305 21.208 177.126 21.208C175.705 21.208 174.44 20.9047 173.33 20.298C172.221 19.6913 171.354 18.8247 170.73 17.698C170.106 16.5713 169.794 15.254 169.794 13.746C169.794 12.238 170.098 10.9207 170.704 9.794C171.328 8.66733 172.195 7.80067 173.304 7.194C174.414 6.58733 175.688 6.284 177.126 6.284C178.53 6.284 179.778 6.57867 180.87 7.168C181.962 7.75733 182.812 8.598 183.418 9.69C184.042 10.782 184.354 12.056 184.354 13.512ZM179.804 12.342C179.804 11.5793 179.544 10.9727 179.024 10.522C178.504 10.0713 177.854 9.846 177.074 9.846C176.329 9.846 175.696 10.0627 175.176 10.496C174.674 10.9293 174.362 11.5447 174.24 12.342H179.804ZM195.566 21L191.146 14.916V21H186.7V1.76H191.146V12.394L195.54 6.492H201.026L194.994 13.772L201.078 21H195.566Z" fill="black"/>
</svg>
